<?xml version="1.0" standalone="no"?>
<!DOCTYPE svg PUBLIC "-//W3C//DTD SVG 20010904//EN"
 "http://www.w3.org/TR/2001/REC-SVG-20010904/DTD/svg10.dtd">
<svg version="1.0" xmlns="http://www.w3.org/2000/svg"
 width="206.000000pt" height="206.000000pt" viewBox="0 0 206.000000 206.000000"
 preserveAspectRatio="xMidYMid meet">
<metadata>
Created by potrace 1.13, written by Peter Selinger 2001-2015
</metadata>
<g transform="translate(0.000000,206.000000) scale(0.100000,-0.100000)"
fill="#000000" stroke="none">
<path d="M794 2030 c-199 -50 -350 -135 -490 -274 -141 -141 -225 -292 -275
-495 -67 -271 -12 -570 151 -812 56 -82 187 -213 269 -269 242 -163 541 -218
812 -151 203 50 354 134 495 275 141 141 225 292 275 495 54 219 30 452 -69
663 -55 119 -112 200 -206 294 -141 141 -292 225 -495 275 -161 40 -308 40
-467 -1z m574 -537 c25 -21 332 -741 332 -778 0 -32 -37 -52 -67 -37 -13 7
-64 116 -154 326 -73 174 -137 312 -141 308 -3 -4 -64 -142 -133 -307 -70
-165 -134 -308 -143 -317 -8 -10 -22 -18 -30 -18 -21 0 -52 29 -52 49 0 29
322 771 338 781 23 13 27 12 50 -7z m-605 -20 c8 -16 60 -137 117 -270 l102
-241 -23 -61 c-13 -34 -26 -61 -29 -61 -3 0 -50 105 -104 233 -54 127 -101
235 -105 240 -4 4 -67 -135 -141 -309 -88 -207 -141 -319 -153 -326 -30 -16
-67 5 -67 39 0 26 285 712 316 761 21 33 69 30 87 -5z"/>
</g>
</svg>
